REM DIRINDEX 1\2,1\3,1\4,1\6,1\5\7,1\5\8
REM DIRNAME folder01,folder02,folder03,folder04,folder05,folder06,folder07,folder08
TITLE ""
FILE "DB4500_5th_1A_13.mp3" MP3
  TRACK 01 AUDIO
    TITLE "0:"
    INDEX 01 00:00:00
  TRACK 02 AUDIO
    TITLE "2:cjc114_0343"
    INDEX 01 00:00:01
  TRACK 03 AUDIO
    TITLE "0:"
    INDEX 01 00:01:11
  TRACK 04 AUDIO
    TITLE "3:cjc114_0344"
    INDEX 01 00:01:36
  TRACK 05 AUDIO
    TITLE "0:"
    INDEX 01 00:03:06
  TRACK 06 AUDIO
    TITLE "4:cjc114_0345"
    INDEX 01 00:03:35
  TRACK 07 AUDIO
    TITLE "0:"
    INDEX 01 00:08:01
  TRACK 08 AUDIO
    TITLE "2:cjc114_0346"
    INDEX 01 00:08:56
  TRACK 09 AUDIO
    TITLE "0:"
    INDEX 01 00:09:61
  TRACK 10 AUDIO
    TITLE "3:cjc114_0347"
    INDEX 01 00:10:12
  TRACK 11 AUDIO
    TITLE "0:"
    INDEX 01 00:11:25
  TRACK 12 AUDIO
    TITLE "4:cjc114_0348"
    INDEX 01 00:11:52
  TRACK 13 AUDIO
    TITLE "0:"
    INDEX 01 00:14:23
  TRACK 14 AUDIO
    TITLE "2:cjc114_0349"
    INDEX 01 00:15:03
  TRACK 15 AUDIO
    TITLE "0:"
    INDEX 01 00:16:20
  TRACK 16 AUDIO
    TITLE "3:cjc114_0350"
    INDEX 01 00:16:48
  TRACK 17 AUDIO
    TITLE "0:"
    INDEX 01 00:17:59
  TRACK 18 AUDIO
    TITLE "4:cjc114_0351"
    INDEX 01 00:18:13
  TRACK 19 AUDIO
    TITLE "0:"
    INDEX 01 00:22:07
  TRACK 20 AUDIO
    TITLE "2:cjc114_0352"
    INDEX 01 00:22:60
  TRACK 21 AUDIO
    TITLE "0:"
    INDEX 01 00:23:59
  TRACK 22 AUDIO
    TITLE "3:cjc114_0353"
    INDEX 01 00:24:12
  TRACK 23 AUDIO
    TITLE "0:"
    INDEX 01 00:25:33
  TRACK 24 AUDIO
    TITLE "4:cjc114_0354"
    INDEX 01 00:25:60
  TRACK 25 AUDIO
    TITLE "0:"
    INDEX 01 00:28:13
  TRACK 26 AUDIO
    TITLE "2:cjc114_0355"
    INDEX 01 00:28:64
  TRACK 27 AUDIO
    TITLE "0:"
    INDEX 01 00:29:70
  TRACK 28 AUDIO
    TITLE "3:cjc114_0356"
    INDEX 01 00:30:22
  TRACK 29 AUDIO
    TITLE "0:"
    INDEX 01 00:31:16
  TRACK 30 AUDIO
    TITLE "4:cjc114_0357"
    INDEX 01 00:31:57
  TRACK 31 AUDIO
    TITLE "0:"
    INDEX 01 00:34:55
  TRACK 32 AUDIO
    TITLE "2:cjc114_0358"
    INDEX 01 00:35:33
  TRACK 33 AUDIO
    TITLE "0:"
    INDEX 01 00:36:38
  TRACK 34 AUDIO
    TITLE "3:cjc114_0359"
    INDEX 01 00:36:68
  TRACK 35 AUDIO
    TITLE "0:"
    INDEX 01 00:38:14
  TRACK 36 AUDIO
    TITLE "4:cjc114_0360"
    INDEX 01 00:38:39
  TRACK 37 AUDIO
    TITLE "0:"
    INDEX 01 00:41:44
  TRACK 38 AUDIO
    TITLE "2:cjc114_0361"
    INDEX 01 00:42:19
  TRACK 39 AUDIO
    TITLE "0:"
    INDEX 01 00:43:39
  TRACK 40 AUDIO
    TITLE "3:cjc114_0362"
    INDEX 01 00:43:62
  TRACK 41 AUDIO
    TITLE "0:"
    INDEX 01 00:45:12
  TRACK 42 AUDIO
    TITLE "4:cjc114_0363"
    INDEX 01 00:45:39
  TRACK 43 AUDIO
    TITLE "0:"
    INDEX 01 00:47:40
  TRACK 44 AUDIO
    TITLE "2:cjc114_0364"
    INDEX 01 00:48:18
  TRACK 45 AUDIO
    TITLE "0:"
    INDEX 01 00:49:45
  TRACK 46 AUDIO
    TITLE "3:cjc114_0365"
    INDEX 01 00:49:74
  TRACK 47 AUDIO
    TITLE "0:"
    INDEX 01 00:51:22
  TRACK 48 AUDIO
    TITLE "4:cjc114_0366"
    INDEX 01 00:51:44
  TRACK 49 AUDIO
    TITLE "0:"
    INDEX 01 00:55:32
  TRACK 50 AUDIO
    TITLE "2:cjc114_0367"
    INDEX 01 00:56:08
  TRACK 51 AUDIO
    TITLE "0:"
    INDEX 01 00:57:15
  TRACK 52 AUDIO
    TITLE "3:cjc114_0368"
    INDEX 01 00:57:45
  TRACK 53 AUDIO
    TITLE "0:"
    INDEX 01 00:58:48
  TRACK 54 AUDIO
    TITLE "4:cjc114_0369"
    INDEX 01 00:59:00
  TRACK 55 AUDIO
    TITLE "0:"
    INDEX 01 01:03:04
  TRACK 56 AUDIO
    TITLE "2:cjc114_0370"
    INDEX 01 01:03:49
  TRACK 57 AUDIO
    TITLE "0:"
    INDEX 01 01:04:50
  TRACK 58 AUDIO
    TITLE "3:cjc114_0371"
    INDEX 01 01:05:11
  TRACK 59 AUDIO
    TITLE "0:"
    INDEX 01 01:06:12
  TRACK 60 AUDIO
    TITLE "4:cjc114_0372"
    INDEX 01 01:06:42
  TRACK 61 AUDIO
    TITLE "0:"
    INDEX 01 01:09:14
  TRACK 62 AUDIO
    TITLE "2:cjc114_0373"
    INDEX 01 01:09:67
  TRACK 63 AUDIO
    TITLE "0:"
    INDEX 01 01:10:71
  TRACK 64 AUDIO
    TITLE "3:cjc114_0374"
    INDEX 01 01:11:23
  TRACK 65 AUDIO
    TITLE "0:"
    INDEX 01 01:12:48
  TRACK 66 AUDIO
    TITLE "4:cjc114_0375"
    INDEX 01 01:13:02
  TRACK 67 AUDIO
    TITLE "0:"
    INDEX 01 01:15:68
  TRACK 68 AUDIO
    TITLE "4:cjc114_0376"
    INDEX 01 01:16:32
  TRACK 69 AUDIO
    TITLE "0:"
    INDEX 01 01:18:51
  TRACK 70 AUDIO
    TITLE "2:cjc114_0377"
    INDEX 01 01:19:30
  TRACK 71 AUDIO
    TITLE "0:"
    INDEX 01 01:20:28
  TRACK 72 AUDIO
    TITLE "3:cjc114_0378"
    INDEX 01 01:20:59
  TRACK 73 AUDIO
    TITLE "0:"
    INDEX 01 01:22:13
  TRACK 74 AUDIO
    TITLE "4:cjc114_0379"
    INDEX 01 01:22:42
  TRACK 75 AUDIO
    TITLE "0:"
    INDEX 01 01:25:27
